<?xml version='1.0' encoding='UTF-8' standalone='no'?>
<svg xmlns="http://www.w3.org/2000/svg" height="227pt" viewBox="0 0 304 227" width="304pt" xmlns:xlink="http://www.w3.org/1999/xlink">
 <title>gl2ps_renderer figure</title>
 <desc>
Creator: GL2PS 1.4.2, (C) 1999-2020 C. Geuzaine
For: Octave
CreationDate: Wed Dec 16 16:58:49 2020
</desc>
 <defs/>
 <polygon points="0,0 304,0 304,227 0,227" fill="#ffffff"/>
 <g>
  <polygon points="0,227 304,227 304,0 0,0" shape-rendering="crispEdges" fill="#ffffff"/>
  <clipPath id="cp00304227">
   <polygon points="0,227 304,227 304,0 0,0"/>
  </clipPath>
  <g clip-path="url(#cp00304227)">
   <polygon points="39.5498,197.582 275.327,197.582 275.327,22 39.5498,22" shape-rendering="crispEdges" fill="#ffffff"/>
   <polyline points="39.5498,197.582 39.5498,22" stroke-opacity="0.15" fill="none" stroke="#262626" stroke-width="0.5" stroke-linecap="butt" stroke-linejoin="miter" stroke-dasharray="16,0"/>
   <polyline points="98.4941,197.582 98.4941,22" stroke-opacity="0.15" fill="none" stroke="#262626" stroke-width="0.5" stroke-linecap="butt" stroke-linejoin="miter" stroke-dasharray="16,0"/>
   <polyline points="157.438,197.582 157.438,22" stroke-opacity="0.15" fill="none" stroke="#262626" stroke-width="0.5" stroke-linecap="butt" stroke-linejoin="miter" stroke-dasharray="16,0"/>
   <polyline points="216.383,197.582 216.383,22" stroke-opacity="0.15" fill="none" stroke="#262626" stroke-width="0.5" stroke-linecap="butt" stroke-linejoin="miter" stroke-dasharray="16,0"/>
   <polyline points="275.327,197.582 275.327,22" stroke-opacity="0.15" fill="none" stroke="#262626" stroke-width="0.5" stroke-linecap="butt" stroke-linejoin="miter" stroke-dasharray="16,0"/>
   <polyline points="39.5498,197.582 39.5498,195.23" fill="none" stroke="#262626" stroke-width="0.5" stroke-linecap="butt" stroke-linejoin="miter"/>
   <polyline points="98.4941,197.582 98.4941,195.23" fill="none" stroke="#262626" stroke-width="0.5" stroke-linecap="butt" stroke-linejoin="miter"/>
   <polyline points="157.438,197.582 157.438,195.23" fill="none" stroke="#262626" stroke-width="0.5" stroke-linecap="butt" stroke-linejoin="miter"/>
   <polyline points="216.383,197.582 216.383,195.23" fill="none" stroke="#262626" stroke-width="0.5" stroke-linecap="butt" stroke-linejoin="miter"/>
   <polyline points="275.327,197.582 275.327,195.23" fill="none" stroke="#262626" stroke-width="0.5" stroke-linecap="butt" stroke-linejoin="miter"/>
   <text font-size="10" transform="translate(36.5498,213.064) rotate(-0,3,-8)" font-weight="normal" xml:space="preserve" font-style="normal" font-family="FreeSans">
    <tspan y="-0" fill="rgb(38,38,38)" x="0 ">0</tspan>
   </text>
   <text font-size="10" transform="translate(89.4941,213.064) rotate(-0,9,-8)" font-weight="normal" xml:space="preserve" font-style="normal" font-family="FreeSans">
    <tspan y="-0" fill="rgb(38,38,38)" x="0 6 12 ">100</tspan>
   </text>
   <text font-size="10" transform="translate(148.438,213.064) rotate(-0,9,-8)" font-weight="normal" xml:space="preserve" font-style="normal" font-family="FreeSans">
    <tspan y="-0" fill="rgb(38,38,38)" x="0 6 12 ">200</tspan>
   </text>
   <text font-size="10" transform="translate(207.383,213.064) rotate(-0,9,-8)" font-weight="normal" xml:space="preserve" font-style="normal" font-family="FreeSans">
    <tspan y="-0" fill="rgb(38,38,38)" x="0 6 12 ">300</tspan>
   </text>
   <text font-size="10" transform="translate(266.327,213.064) rotate(-0,9,-8)" font-weight="normal" xml:space="preserve" font-style="normal" font-family="FreeSans">
    <tspan y="-0" fill="rgb(38,38,38)" x="0 6 12 ">400</tspan>
   </text>
   <polyline points="39.5498,190.031 275.327,190.031" stroke-opacity="0.25" fill="none" stroke="#191919" stroke-width="0.5" stroke-linecap="butt" stroke-linejoin="miter" stroke-dasharray="1,3,1,3,1,3,1,3"/>
   <polyline points="39.5498,185.614 275.327,185.614" stroke-opacity="0.25" fill="none" stroke="#191919" stroke-width="0.5" stroke-linecap="butt" stroke-linejoin="miter" stroke-dasharray="1,3,1,3,1,3,1,3"/>
   <polyline points="39.5498,182.481 275.327,182.481" stroke-opacity="0.25" fill="none" stroke="#191919" stroke-width="0.5" stroke-linecap="butt" stroke-linejoin="miter" stroke-dasharray="1,3,1,3,1,3,1,3"/>
   <polyline points="39.5498,180.05 275.327,180.05" stroke-opacity="0.25" fill="none" stroke="#191919" stroke-width="0.5" stroke-linecap="butt" stroke-linejoin="miter" stroke-dasharray="1,3,1,3,1,3,1,3"/>
   <polyline points="39.5498,178.064 275.327,178.064" stroke-opacity="0.25" fill="none" stroke="#191919" stroke-width="0.5" stroke-linecap="butt" stroke-linejoin="miter" stroke-dasharray="1,3,1,3,1,3,1,3"/>
   <polyline points="39.5498,176.384 275.327,176.384" stroke-opacity="0.25" fill="none" stroke="#191919" stroke-width="0.5" stroke-linecap="butt" stroke-linejoin="miter" stroke-dasharray="1,3,1,3,1,3,1,3"/>
   <polyline points="39.5498,174.93 275.327,174.93" stroke-opacity="0.25" fill="none" stroke="#191919" stroke-width="0.5" stroke-linecap="butt" stroke-linejoin="miter" stroke-dasharray="1,3,1,3,1,3,1,3"/>
   <polyline points="39.5498,173.647 275.327,173.647" stroke-opacity="0.25" fill="none" stroke="#191919" stroke-width="0.5" stroke-linecap="butt" stroke-linejoin="miter" stroke-dasharray="1,3,1,3,1,3,1,3"/>
   <polyline points="39.5498,164.948 275.327,164.948" stroke-opacity="0.25" fill="none" stroke="#191919" stroke-width="0.5" stroke-linecap="butt" stroke-linejoin="miter" stroke-dasharray="1,3,1,3,1,3,1,3"/>
   <polyline points="39.5498,160.531 275.327,160.531" stroke-opacity="0.25" fill="none" stroke="#191919" stroke-width="0.5" stroke-linecap="butt" stroke-linejoin="miter" stroke-dasharray="1,3,1,3,1,3,1,3"/>
   <polyline points="39.5498,157.397 275.327,157.397" stroke-opacity="0.25" fill="none" stroke="#191919" stroke-width="0.5" stroke-linecap="butt" stroke-linejoin="miter" stroke-dasharray="1,3,1,3,1,3,1,3"/>
   <polyline points="39.5498,154.967 275.327,154.967" stroke-opacity="0.25" fill="none" stroke="#191919" stroke-width="0.5" stroke-linecap="butt" stroke-linejoin="miter" stroke-dasharray="1,3,1,3,1,3,1,3"/>
   <polyline points="39.5498,152.98 275.327,152.98" stroke-opacity="0.25" fill="none" stroke="#191919" stroke-width="0.5" stroke-linecap="butt" stroke-linejoin="miter" stroke-dasharray="1,3,1,3,1,3,1,3"/>
   <polyline points="39.5498,151.301 275.327,151.301" stroke-opacity="0.25" fill="none" stroke="#191919" stroke-width="0.5" stroke-linecap="butt" stroke-linejoin="miter" stroke-dasharray="1,3,1,3,1,3,1,3"/>
   <polyline points="39.5498,149.847 275.327,149.847" stroke-opacity="0.25" fill="none" stroke="#191919" stroke-width="0.5" stroke-linecap="butt" stroke-linejoin="miter" stroke-dasharray="1,3,1,3,1,3,1,3"/>
   <polyline points="39.5498,148.564 275.327,148.564" stroke-opacity="0.25" fill="none" stroke="#191919" stroke-width="0.5" stroke-linecap="butt" stroke-linejoin="miter" stroke-dasharray="1,3,1,3,1,3,1,3"/>
   <polyline points="39.5498,139.865 275.327,139.865" stroke-opacity="0.25" fill="none" stroke="#191919" stroke-width="0.5" stroke-linecap="butt" stroke-linejoin="miter" stroke-dasharray="1,3,1,3,1,3,1,3"/>
   <polyline points="39.5498,135.448 275.327,135.448" stroke-opacity="0.25" fill="none" stroke="#191919" stroke-width="0.5" stroke-linecap="butt" stroke-linejoin="miter" stroke-dasharray="1,3,1,3,1,3,1,3"/>
   <polyline points="39.5498,132.314 275.327,132.314" stroke-opacity="0.25" fill="none" stroke="#191919" stroke-width="0.5" stroke-linecap="butt" stroke-linejoin="miter" stroke-dasharray="1,3,1,3,1,3,1,3"/>
   <polyline points="39.5498,129.883 275.327,129.883" stroke-opacity="0.25" fill="none" stroke="#191919" stroke-width="0.5" stroke-linecap="butt" stroke-linejoin="miter" stroke-dasharray="1,3,1,3,1,3,1,3"/>
   <polyline points="39.5498,127.897 275.327,127.897" stroke-opacity="0.25" fill="none" stroke="#191919" stroke-width="0.5" stroke-linecap="butt" stroke-linejoin="miter" stroke-dasharray="1,3,1,3,1,3,1,3"/>
   <polyline points="39.5498,126.218 275.327,126.218" stroke-opacity="0.25" fill="none" stroke="#191919" stroke-width="0.5" stroke-linecap="butt" stroke-linejoin="miter" stroke-dasharray="1,3,1,3,1,3,1,3"/>
   <polyline points="39.5498,124.763 275.327,124.763" stroke-opacity="0.25" fill="none" stroke="#191919" stroke-width="0.5" stroke-linecap="butt" stroke-linejoin="miter" stroke-dasharray="1,3,1,3,1,3,1,3"/>
   <polyline points="39.5498,123.48 275.327,123.48" stroke-opacity="0.25" fill="none" stroke="#191919" stroke-width="0.5" stroke-linecap="butt" stroke-linejoin="miter" stroke-dasharray="1,3,1,3,1,3,1,3"/>
   <polyline points="39.5498,114.782 275.327,114.782" stroke-opacity="0.25" fill="none" stroke="#191919" stroke-width="0.5" stroke-linecap="butt" stroke-linejoin="miter" stroke-dasharray="1,3,1,3,1,3,1,3"/>
   <polyline points="39.5498,110.365 275.327,110.365" stroke-opacity="0.25" fill="none" stroke="#191919" stroke-width="0.5" stroke-linecap="butt" stroke-linejoin="miter" stroke-dasharray="1,3,1,3,1,3,1,3"/>
   <polyline points="39.5498,107.231 275.327,107.231" stroke-opacity="0.25" fill="none" stroke="#191919" stroke-width="0.5" stroke-linecap="butt" stroke-linejoin="miter" stroke-dasharray="1,3,1,3,1,3,1,3"/>
   <polyline points="39.5498,104.8 275.327,104.8" stroke-opacity="0.25" fill="none" stroke="#191919" stroke-width="0.5" stroke-linecap="butt" stroke-linejoin="miter" stroke-dasharray="1,3,1,3,1,3,1,3"/>
   <polyline points="39.5498,102.814 275.327,102.814" stroke-opacity="0.25" fill="none" stroke="#191919" stroke-width="0.5" stroke-linecap="butt" stroke-linejoin="miter" stroke-dasharray="1,3,1,3,1,3,1,3"/>
   <polyline points="39.5498,101.135 275.327,101.135" stroke-opacity="0.25" fill="none" stroke="#191919" stroke-width="0.5" stroke-linecap="butt" stroke-linejoin="miter" stroke-dasharray="1,3,1,3,1,3,1,3"/>
   <polyline points="39.5498,99.6803 275.327,99.6803" stroke-opacity="0.25" fill="none" stroke="#191919" stroke-width="0.5" stroke-linecap="butt" stroke-linejoin="miter" stroke-dasharray="1,3,1,3,1,3,1,3"/>
   <polyline points="39.5498,98.3972 275.327,98.3972" stroke-opacity="0.25" fill="none" stroke="#191919" stroke-width="0.5" stroke-linecap="butt" stroke-linejoin="miter" stroke-dasharray="1,3,1,3,1,3,1,3"/>
   <polyline points="39.5498,89.6987 275.327,89.6987" stroke-opacity="0.25" fill="none" stroke="#191919" stroke-width="0.5" stroke-linecap="butt" stroke-linejoin="miter" stroke-dasharray="1,3,1,3,1,3,1,3"/>
   <polyline points="39.5498,85.2818 275.327,85.2818" stroke-opacity="0.25" fill="none" stroke="#191919" stroke-width="0.5" stroke-linecap="butt" stroke-linejoin="miter" stroke-dasharray="1,3,1,3,1,3,1,3"/>
   <polyline points="39.5498,82.1479 275.327,82.1479" stroke-opacity="0.25" fill="none" stroke="#191919" stroke-width="0.5" stroke-linecap="butt" stroke-linejoin="miter" stroke-dasharray="1,3,1,3,1,3,1,3"/>
   <polyline points="39.5498,79.7171 275.327,79.7171" stroke-opacity="0.25" fill="none" stroke="#191919" stroke-width="0.5" stroke-linecap="butt" stroke-linejoin="miter" stroke-dasharray="1,3,1,3,1,3,1,3"/>
   <polyline points="39.5498,77.731 275.327,77.731" stroke-opacity="0.25" fill="none" stroke="#191919" stroke-width="0.5" stroke-linecap="butt" stroke-linejoin="miter" stroke-dasharray="1,3,1,3,1,3,1,3"/>
   <polyline points="39.5498,76.0518 275.327,76.0518" stroke-opacity="0.25" fill="none" stroke="#191919" stroke-width="0.5" stroke-linecap="butt" stroke-linejoin="miter" stroke-dasharray="1,3,1,3,1,3,1,3"/>
   <polyline points="39.5498,74.5971 275.327,74.5971" stroke-opacity="0.25" fill="none" stroke="#191919" stroke-width="0.5" stroke-linecap="butt" stroke-linejoin="miter" stroke-dasharray="1,3,1,3,1,3,1,3"/>
   <polyline points="39.5498,73.3141 275.327,73.3141" stroke-opacity="0.25" fill="none" stroke="#191919" stroke-width="0.5" stroke-linecap="butt" stroke-linejoin="miter" stroke-dasharray="1,3,1,3,1,3,1,3"/>
   <polyline points="39.5498,64.6155 275.327,64.6155" stroke-opacity="0.25" fill="none" stroke="#191919" stroke-width="0.5" stroke-linecap="butt" stroke-linejoin="miter" stroke-dasharray="1,3,1,3,1,3,1,3"/>
   <polyline points="39.5498,60.1986 275.327,60.1986" stroke-opacity="0.25" fill="none" stroke="#191919" stroke-width="0.5" stroke-linecap="butt" stroke-linejoin="miter" stroke-dasharray="1,3,1,3,1,3,1,3"/>
   <polyline points="39.5498,57.0648 275.327,57.0648" stroke-opacity="0.25" fill="none" stroke="#191919" stroke-width="0.5" stroke-linecap="butt" stroke-linejoin="miter" stroke-dasharray="1,3,1,3,1,3,1,3"/>
   <polyline points="39.5498,54.634 275.327,54.634" stroke-opacity="0.25" fill="none" stroke="#191919" stroke-width="0.5" stroke-linecap="butt" stroke-linejoin="miter" stroke-dasharray="1,3,1,3,1,3,1,3"/>
   <polyline points="39.5498,52.6478 275.327,52.6478" stroke-opacity="0.25" fill="none" stroke="#191919" stroke-width="0.5" stroke-linecap="butt" stroke-linejoin="miter" stroke-dasharray="1,3,1,3,1,3,1,3"/>
   <polyline points="39.5498,50.9686 275.327,50.9686" stroke-opacity="0.25" fill="none" stroke="#191919" stroke-width="0.5" stroke-linecap="butt" stroke-linejoin="miter" stroke-dasharray="1,3,1,3,1,3,1,3"/>
   <polyline points="39.5498,49.514 275.327,49.514" stroke-opacity="0.25" fill="none" stroke="#191919" stroke-width="0.5" stroke-linecap="butt" stroke-linejoin="miter" stroke-dasharray="1,3,1,3,1,3,1,3"/>
   <polyline points="39.5498,48.2309 275.327,48.2309" stroke-opacity="0.25" fill="none" stroke="#191919" stroke-width="0.5" stroke-linecap="butt" stroke-linejoin="miter" stroke-dasharray="1,3,1,3,1,3,1,3"/>
   <polyline points="39.5498,39.5324 275.327,39.5324" stroke-opacity="0.25" fill="none" stroke="#191919" stroke-width="0.5" stroke-linecap="butt" stroke-linejoin="miter" stroke-dasharray="1,3,1,3,1,3,1,3"/>
   <polyline points="39.5498,35.1154 275.327,35.1154" stroke-opacity="0.25" fill="none" stroke="#191919" stroke-width="0.5" stroke-linecap="butt" stroke-linejoin="miter" stroke-dasharray="1,3,1,3,1,3,1,3"/>
   <polyline points="39.5498,31.9816 275.327,31.9816" stroke-opacity="0.25" fill="none" stroke="#191919" stroke-width="0.5" stroke-linecap="butt" stroke-linejoin="miter" stroke-dasharray="1,3,1,3,1,3,1,3"/>
   <polyline points="39.5498,29.5508 275.327,29.5508" stroke-opacity="0.25" fill="none" stroke="#191919" stroke-width="0.5" stroke-linecap="butt" stroke-linejoin="miter" stroke-dasharray="1,3,1,3,1,3,1,3"/>
   <polyline points="39.5498,27.5647 275.327,27.5647" stroke-opacity="0.25" fill="none" stroke="#191919" stroke-width="0.5" stroke-linecap="butt" stroke-linejoin="miter" stroke-dasharray="1,3,1,3,1,3,1,3"/>
   <polyline points="39.5498,25.8854 275.327,25.8854" stroke-opacity="0.25" fill="none" stroke="#191919" stroke-width="0.5" stroke-linecap="butt" stroke-linejoin="miter" stroke-dasharray="1,3,1,3,1,3,1,3"/>
   <polyline points="39.5498,24.4308 275.327,24.4308" stroke-opacity="0.25" fill="none" stroke="#191919" stroke-width="0.5" stroke-linecap="butt" stroke-linejoin="miter" stroke-dasharray="1,3,1,3,1,3,1,3"/>
   <polyline points="39.5498,23.1477 275.327,23.1477" stroke-opacity="0.25" fill="none" stroke="#191919" stroke-width="0.5" stroke-linecap="butt" stroke-linejoin="miter" stroke-dasharray="1,3,1,3,1,3,1,3"/>
   <polyline points="39.5498,197.582 275.327,197.582" stroke-opacity="0.15" fill="none" stroke="#262626" stroke-width="0.5" stroke-linecap="butt" stroke-linejoin="miter" stroke-dasharray="16,0"/>
   <polyline points="39.5498,172.499 275.327,172.499" stroke-opacity="0.15" fill="none" stroke="#262626" stroke-width="0.5" stroke-linecap="butt" stroke-linejoin="miter" stroke-dasharray="16,0"/>
   <polyline points="39.5498,147.416 275.327,147.416" stroke-opacity="0.15" fill="none" stroke="#262626" stroke-width="0.5" stroke-linecap="butt" stroke-linejoin="miter" stroke-dasharray="16,0"/>
   <polyline points="39.5498,122.333 275.327,122.333" stroke-opacity="0.15" fill="none" stroke="#262626" stroke-width="0.5" stroke-linecap="butt" stroke-linejoin="miter" stroke-dasharray="16,0"/>
   <polyline points="39.5498,97.2495 275.327,97.2495" stroke-opacity="0.15" fill="none" stroke="#262626" stroke-width="0.5" stroke-linecap="butt" stroke-linejoin="miter" stroke-dasharray="16,0"/>
   <polyline points="39.5498,72.1663 275.327,72.1663" stroke-opacity="0.15" fill="none" stroke="#262626" stroke-width="0.5" stroke-linecap="butt" stroke-linejoin="miter" stroke-dasharray="16,0"/>
   <polyline points="39.5498,47.0832 275.327,47.0832" stroke-opacity="0.15" fill="none" stroke="#262626" stroke-width="0.5" stroke-linecap="butt" stroke-linejoin="miter" stroke-dasharray="16,0"/>
   <polyline points="39.5498,22 275.327,22" stroke-opacity="0.15" fill="none" stroke="#262626" stroke-width="0.5" stroke-linecap="butt" stroke-linejoin="miter" stroke-dasharray="16,0"/>
   <polyline points="39.5498,197.582 41.9053,197.582" fill="none" stroke="#262626" stroke-width="0.5" stroke-linecap="butt" stroke-linejoin="miter"/>
   <polyline points="39.5498,172.499 41.9053,172.499" fill="none" stroke="#262626" stroke-width="0.5" stroke-linecap="butt" stroke-linejoin="miter"/>
   <polyline points="39.5498,147.416 41.9053,147.416" fill="none" stroke="#262626" stroke-width="0.5" stroke-linecap="butt" stroke-linejoin="miter"/>
   <polyline points="39.5498,122.333 41.9053,122.333" fill="none" stroke="#262626" stroke-width="0.5" stroke-linecap="butt" stroke-linejoin="miter"/>
   <polyline points="39.5498,97.2495 41.9053,97.2495" fill="none" stroke="#262626" stroke-width="0.5" stroke-linecap="butt" stroke-linejoin="miter"/>
   <polyline points="39.5498,72.1663 41.9053,72.1663" fill="none" stroke="#262626" stroke-width="0.5" stroke-linecap="butt" stroke-linejoin="miter"/>
   <polyline points="39.5498,47.0832 41.9053,47.0832" fill="none" stroke="#262626" stroke-width="0.5" stroke-linecap="butt" stroke-linejoin="miter"/>
   <polyline points="39.5498,22 41.9053,22" fill="none" stroke="#262626" stroke-width="0.5" stroke-linecap="butt" stroke-linejoin="miter"/>
   <text font-size="10" transform="translate(16.5545,202.582) rotate(-0,18,-5)" font-weight="normal" xml:space="preserve" font-style="normal" font-family="FreeSans">
    <tspan y="-0" fill="rgb(38,38,38)" x="0 6 ">10</tspan>
    <tspan font-size="7" y="-4" fill="rgb(38,38,38)" x="12 14 ">-7</tspan>
   </text>
   <text font-size="10" transform="translate(16.5545,177.499) rotate(-0,18,-5)" font-weight="normal" xml:space="preserve" font-style="normal" font-family="FreeSans">
    <tspan y="-0" fill="rgb(38,38,38)" x="0 6 ">10</tspan>
    <tspan font-size="7" y="-4" fill="rgb(38,38,38)" x="12 14 ">-6</tspan>
   </text>
   <text font-size="10" transform="translate(16.5545,152.416) rotate(-0,18,-5)" font-weight="normal" xml:space="preserve" font-style="normal" font-family="FreeSans">
    <tspan y="-0" fill="rgb(38,38,38)" x="0 6 ">10</tspan>
    <tspan font-size="7" y="-4" fill="rgb(38,38,38)" x="12 14 ">-5</tspan>
   </text>
   <text font-size="10" transform="translate(16.5545,127.333) rotate(-0,18,-5)" font-weight="normal" xml:space="preserve" font-style="normal" font-family="FreeSans">
    <tspan y="-0" fill="rgb(38,38,38)" x="0 6 ">10</tspan>
    <tspan font-size="7" y="-4" fill="rgb(38,38,38)" x="12 14 ">-4</tspan>
   </text>
   <text font-size="10" transform="translate(16.5545,102.25) rotate(-0,18,-5)" font-weight="normal" xml:space="preserve" font-style="normal" font-family="FreeSans">
    <tspan y="-0" fill="rgb(38,38,38)" x="0 6 ">10</tspan>
    <tspan font-size="7" y="-4" fill="rgb(38,38,38)" x="12 14 ">-3</tspan>
   </text>
   <text font-size="10" transform="translate(16.5545,77.1663) rotate(-0,18,-5)" font-weight="normal" xml:space="preserve" font-style="normal" font-family="FreeSans">
    <tspan y="-0" fill="rgb(38,38,38)" x="0 6 ">10</tspan>
    <tspan font-size="7" y="-4" fill="rgb(38,38,38)" x="12 14 ">-2</tspan>
   </text>
   <text font-size="10" transform="translate(16.5545,52.0832) rotate(-0,18,-5)" font-weight="normal" xml:space="preserve" font-style="normal" font-family="FreeSans">
    <tspan y="-0" fill="rgb(38,38,38)" x="0 6 ">10</tspan>
    <tspan font-size="7" y="-4" fill="rgb(38,38,38)" x="12 14 ">-1</tspan>
   </text>
   <text font-size="10" transform="translate(18.5545,27) rotate(-0,16,-5)" font-weight="normal" xml:space="preserve" font-style="normal" font-family="FreeSans">
    <tspan y="-0" fill="rgb(38,38,38)" x="0 6 ">10</tspan>
    <tspan font-size="7" y="-4" fill="rgb(38,38,38)" x="12 ">0</tspan>
   </text>
   <polyline points="39.5498,197.582 275.327,197.582" fill="none" stroke="#262626" stroke-width="0.5" stroke-linecap="square" stroke-linejoin="miter" stroke-dasharray="16,0"/>
   <polyline points="39.5498,197.582 39.5498,22" fill="none" stroke="#262626" stroke-width="0.5" stroke-linecap="square" stroke-linejoin="miter" stroke-dasharray="16,0"/>
   <text font-size="11" transform="translate(137.938,227.064) rotate(-0,19.5,-9)" font-weight="normal" xml:space="preserve" font-style="normal" font-family="FreeSans">
    <tspan y="-0" fill="rgb(38,38,38)" x="0 3 6 12 16 22 25 27 33 ">Iteration</tspan>
   </text>
   <text font-size="11" transform="translate(-27.4455,109.791) rotate(-90,39,0)" font-weight="normal" xml:space="preserve" font-style="normal" font-family="FreeSans">
    <tspan y="-1" fill="rgb(38,38,38)" x="0 8 14 16 22 25 27 32 38 41 45 51 56 58 64 70 76 ">Relative residual</tspan>
   </text>
   <text font-size="11" transform="translate(53.9385,12) rotate(-0,103.5,0)" font-weight="bold" xml:space="preserve" font-style="normal" font-family="FreeSans">
    <tspan y="-3" fill="rgb(0,0,0)" x="0 6 13 23 30 36 40 43 50 57 60 66 73 76 82 89 96 99 106 112 119 122 129 136 139 143 146 149 155 158 165 172 178 184 187 197 201 ">comparing cg and pcg on file:nos5.mtx</tspan>
   </text>
   <polyline points="40.1392,30.3741 40.7287,41.9001 41.3181,50.3617 41.9075,57.2203 42.497,63.1255 43.0864,65.2077 43.6759,65.6188 44.2653,67.2692 44.8548,69.4222 45.4442,72.5422 46.0337,76.912 46.6231,80.8283 47.2125,82.6953 47.802,85.4244 48.3914,85.9155 48.9809,83.4829 49.5703,83.0683 50.1598,85.7119 50.7492,88.0499 51.3386,89.2646 51.9281,90.3681 52.5175,89.5613 53.107,87.0672 53.6964,85.6749 54.2859,85.6696 54.8753,89.4812 55.4647,94.5876 56.0542,93.9406 56.6436,92.8484 57.2331,89.9872 57.8225,89.7358 58.412,90.1387 59.0014,90.8048 59.5909,92.2838 60.1803,92.2434 60.7697,92.6618 61.3592,91.9163 61.9486,93.8475 62.5381,97.0988 63.1275,98.7476 63.717,96.877 64.3064,93.2162 64.8958,92.095 65.4853,92.8571 66.0747,93.7353 66.6642,92.9313 67.2536,91.2454 67.8431,90.4999 68.4325,90.2856 69.0219,91.4689 69.6114,93.2364 70.2008,97.1239 70.7903,97.155 71.3797,95.6795 71.9692,94.0556 72.5586,94.6967 73.1481,96.039 73.7375,96.5504 74.3269,95.7651 74.9164,95.0607 75.5058,95.5148 76.0953,96.2637 76.6847,98.0444 77.2742,100.086 77.8636,99.6704 78.453,96.2669 79.0425,93.8202 79.6319,94.6774 80.2214,96.1998 80.8108,98.682 81.4003,97.7743 81.9897,96.7142 82.5792,95.5847 83.1686,96.007 83.758,96.4521 84.3475,98.1698 84.9369,100.281 85.5264,100.154 86.1158,97.0534 86.7053,93.1533 87.2947,93.3655 87.8841,96.1769 88.4736,99.0532 89.063,97.9347 89.6525,96.2334 90.2419,94.4953 90.8314,95.0884 91.4208,97.5922 92.0103,98.8609 92.5997,97.4822 93.1891,94.3823 93.7786,93.5692 94.368,96.6306 94.9575,97.5702 95.5469,98.2944 96.1364,99.5461 96.7258,98.2625 97.3152,97.3585 97.9047,97.588 98.4941,98.2441 99.0836,98.7566 99.673,98.3356 100.262,96.5066 100.852,94.5646 101.441,94.2942 102.031,93.619 102.62,95.0717 103.21,96.5679 103.799,96.3221 104.389,94.1077 104.978,91.625 105.567,93.8026 106.157,97.0687 106.746,95.4238 107.336,92.1791 107.925,93.0835 108.515,95.8753 109.104,96.505 109.694,99.0311 110.283,98.4398 110.872,96.3096 111.462,93.9106 112.051,94.2583 112.641,94.0978 113.23,95.4726 113.82,98.5043 114.409,98.3852 114.999,95.2235 115.588,92.7413 116.177,94.7859 116.767,97.1936 117.356,98.2294 117.946,96.4055 118.535,93.7785 119.125,91.4509 119.714,93.4692 120.304,96.3085 120.893,96.6953 121.482,94.7769 122.072,93.7605 122.661,92.6286 123.251,92.94 123.84,96.0746 124.43,96.7677 125.019,96.6588 125.609,94.8775 126.198,93.9356 126.787,92.6453 127.377,94.4055 127.966,97.4739 128.556,100.054 129.145,99.6444 129.735,97.8433 130.324,94.8178 130.914,95.8099 131.503,97.0494 132.092,99.1836 132.682,98.0915 133.271,95.227 133.861,94.1262 134.45,95.4081 135.04,99.0565 135.629,100.745 136.219,99.998 136.808,98.6501 137.397,97.9255 137.987,97.4946 138.576,100.318 139.166,102.75 139.755,102.305 140.345,100.285 140.934,97.8148 141.524,97.3348 142.113,97.0396 142.702,99.1312 143.292,99.7481 143.881,99.9929 144.471,97.433 145.06,92.1935 145.65,92.1335 146.239,95.7119 146.829,97.2036 147.418,95.4904 148.007,95.5327 148.597,97.8615 149.186,99.2196 149.776,98.9908 150.365,98.6532 150.955,97.843 151.544,94.0198 152.134,93.0374 152.723,94.8423 153.312,99.2356 153.902,100.527 154.491,99.0445 155.081,95.2154 155.67,93.8724 156.26,94.1139 156.849,95.6217 157.438,96.8714 158.028,96.1397 158.617,95.7298 159.207,93.7243 159.796,97.0933 160.386,103.29 160.975,105.693 161.565,104.107 162.154,102.943 162.743,101.8 163.333,102.154 163.922,100.894 164.512,99.8587 165.101,100.731 165.691,100.47 166.28,99.6186 166.87,98.0833 167.459,100.782 168.048,105.054 168.638,105.587 169.227,102.886 169.817,99.3318 170.406,98.0551 170.996,101.121 171.585,105.928 172.175,105.74 172.764,102.427 173.353,100.639 173.943,103.614 174.532,106.434 175.122,107.105 175.711,107.825 176.301,110.324 176.89,109.904 177.48,104.193 178.069,102.557 178.658,106.258 179.248,108.699 179.837,106.512 180.427,104.309 181.016,104.786 181.606,107.772 182.195,113.376 182.785,115.684 183.374,111.557 183.963,108.008 184.553,108.704 185.142,109.662 185.732,110.229 186.321,111.592 186.911,112.346 187.5,109.671 188.09,108.82 188.679,112.106 189.268,114.655 189.858,115.694 190.447,111.349 191.037,109.197 191.626,109.618 192.216,114.355 192.805,116.401 193.395,111.285 193.984,111.14 194.573,113.469 195.163,116.284 195.752,117.689 196.342,117.572 196.931,116.822 197.521,113.425 198.11,111.92 198.7,108.626 199.289,109.786 199.878,114.306 200.468,117.362 201.057,115.315 201.647,111.059 202.236,111.171 202.826,114.58 203.415,117.812 204.005,115.149 204.594,112.799 205.183,113.03 205.773,114.361 206.362,112.691 206.952,114.043 207.541,115.833 208.131,115.642 208.72,114.999 209.31,113.047 209.899,112.267 210.488,114.951 211.078,118.843 211.667,115.023 212.257,109.673 212.846,109.557 213.436,113.473 214.025,117.987 214.615,119.061 215.204,119.822 215.793,117.951 216.383,116.671 216.972,114.261 217.562,113.08 218.151,114.491 218.741,116.784 219.33,121.105 219.92,120.496 220.509,117.426 221.098,120.384 221.688,123.833 222.277,122.451 222.867,116.781 223.456,114.493 224.046,117.208 224.635,123.724 225.225,127.283 225.814,126.648 226.403,122.719 226.993,122.33 227.582,123.608 228.172,124.623 228.761,123.081 229.351,123.253 229.94,124.482 230.53,119.902 231.119,121.097 231.708,124.757 232.298,129.93 232.887,135.088 233.477,132.981 234.066,130.968 234.656,130.102 235.245,132.23 235.835,133.934 236.424,132.85 237.013,130.464 237.603,128.166 238.192,131.389 238.782,131.932 239.371,132.801 239.961,136.119 240.55,136.658 241.139,133.279 241.729,127.839 242.318,125.51 242.908,128.341 243.497,133.543 244.087,140.531 244.676,142.884 245.266,140.037 245.855,139.141 246.444,143.32 247.034,142.438 247.623,138.859 248.213,135.233 248.802,134.205 249.392,132.172 249.981,130.443 250.571,135.794 251.16,144.422 251.749,149.463 252.339,150.527 252.928,145.55 253.518,141.287 254.107,141.779 254.697,146.594 255.286,152.297 255.876,151.212 256.465,151.716 257.054,154.801 257.644,155.706 258.233,155.82 258.823,156.152 259.412,156.489 260.002,155.631 260.591,151.665 261.181,148.14 261.77,148.834 262.359,153.28 262.949,158.849 263.538,164.285 264.128,160.878 264.717,155.723 265.307,153.08 265.896,159.264 266.486,160.247 267.075,157.396 267.664,158.579 268.254,162.117 268.843,164.334 269.433,163.498 270.022,165.043 270.612,168.209 271.201,162.272 271.791,158.504 272.38,161.288 272.969,168.416 273.559,174.4" fill="none" stroke="#0071bc" stroke-width="0.5" stroke-linecap="butt" stroke-linejoin="round"/>
   <polyline points="40.1392,30.3741 40.7287,48.3959 41.3181,57.4158 41.9075,65.3466 42.497,66.2804 43.0864,67.4947 43.6759,72.8532 44.2653,80.8701 44.8548,82.942 45.4442,80.9716 46.0337,80.3452 46.6231,84.0247 47.2125,89.157 47.802,92.0301 48.3914,92.1333 48.9809,90.7721 49.5703,87.4951 50.1598,87.0739 50.7492,88.7611 51.3386,92.774 51.9281,94.7451 52.5175,93.8549 53.107,94.4365 53.6964,94.9975 54.2859,92.568 54.8753,91.26 55.4647,93.7873 56.0542,95.0213 56.6436,92.7869 57.2331,91.7919 57.8225,92.4996 58.412,93.7734 59.0014,95.2652 59.5909,96.5829 60.1803,96.641 60.7697,97.5435 61.3592,97.1467 61.9486,93.8238 62.5381,89.9307 63.1275,90.8368 63.717,93.7851 64.3064,95.2401 64.8958,93.7122 65.4853,94.1086 66.0747,94.2244 66.6642,92.7648 67.2536,92.8974 67.8431,95.8578 68.4325,97.7491 69.0219,95.5218 69.6114,94.2721 70.2008,94.4823 70.7903,94.7198 71.3797,97.6344 71.9692,100.425 72.5586,100.001 73.1481,95.0575 73.7375,94.4426 74.3269,94.8165 74.9164,92.3627 75.5058,90.7644 76.0953,91.74 76.6847,91.3233 77.2742,89.1011 77.8636,89.7745 78.453,92.7947 79.0425,92.8078 79.6319,92.4059 80.2214,94.3126 80.8108,96.4664 81.4003,95.2651 81.9897,93.396 82.5792,95.33 83.1686,96.8928 83.758,97.1916 84.3475,98.8429 84.9369,99.0897 85.5264,97.9802 86.1158,97.3683 86.7053,96.5323 87.2947,96.8327 87.8841,97.3475 88.4736,95.4098 89.063,93.6434 89.6525,93.4127 90.2419,94.6028 90.8314,96.787 91.4208,96.9099 92.0103,94.176 92.5997,91.4194 93.1891,91.8056 93.7786,93.0744 94.368,93.0459 94.9575,94.2053 95.5469,92.9097 96.1364,89.7319 96.7258,91.421 97.3152,93.5425 97.9047,91.4252 98.4941,91.7769 99.0836,96.1196 99.673,95.4949 100.262,91.0466 100.852,92.182 101.441,94.4858 102.031,93.6159 102.62,95.8403 103.21,101.038 103.799,99.681 104.389,97.0325 104.978,99.4265 105.567,100.177 106.157,98.7366 106.746,101.886 107.336,103.491 107.925,99.9944 108.515,97.5696 109.104,99.9429 109.694,101.525 110.283,103.871 110.872,105.921 111.462,106.473 112.051,105.177 112.641,104.252 113.23,104.323 113.82,106.072 114.409,107.447 114.999,108.685 115.588,111.572 116.177,116.436 116.767,114.564 117.356,111.181 117.946,113.648 118.535,118.358 119.125,117.808 119.714,117.231 120.304,120.239 120.893,120.859 121.482,118.09 122.072,121.867 122.661,127.99 123.251,126.661 123.84,124.149 124.43,125.846 125.019,125.328 125.609,122.775 126.198,126.227 126.787,130.485 127.377,126.814 127.966,125.06 128.556,127.909 129.145,129.72 129.735,126.598 130.324,126.607 130.914,129.53 131.503,130.728 132.092,128.366 132.682,126.184 133.271,127.319 133.861,136.044 134.45,142.164 135.04,137.582 135.629,135.247 136.219,141.035 136.808,144.237 137.397,141.374 137.987,140.758 138.576,144.964 139.166,142.29 139.755,138.435 140.345,144.159 140.934,149.734 141.524,148.685 142.113,144.213 142.702,146.124 143.292,148.071 143.881,143.599 144.471,140.89 145.06,145.508 145.65,150.047 146.239,149.321 146.829,145.302 147.418,145.973 148.007,151.782 148.597,155.053 149.186,149.894 149.776,143.975 150.365,145.688 150.955,151.507 151.544,153.746 152.134,149.772 152.723,152.143 153.312,157.056 153.902,156.171 154.491,150.679 155.081,154.383 155.67,159.422 156.26,155.642 156.849,147.049 157.438,149.892 158.028,156.514 158.617,161.387 159.207,155.8 159.796,151.973 160.386,156.829 160.975,159.928 161.565,156.686 162.154,158.58 162.743,165.788 163.333,167.174 163.922,161.99 164.512,164.679 165.101,172.08 165.691,174.534" fill="none" stroke="#d85218" stroke-width="0.5" stroke-linecap="butt" stroke-linejoin="round"/>
   <polyline points="40.1392,30.3741 40.7287,69.2186 41.3181,74.8 41.9075,77.8153 42.497,84.9121 43.0864,86.4856 43.6759,84.472 44.2653,88.5562 44.8548,86.7468 45.4442,85.0227 46.0337,86.1173 46.6231,89.814 47.2125,91.5415 47.802,87.996 48.3914,85.2102 48.9809,87.4453 49.5703,88.4126 50.1598,85.9502 50.7492,80.8955 51.3386,82.2642 51.9281,86.1781 52.5175,87.8333 53.107,94.561 53.6964,99.2104 54.2859,101.484 54.8753,105.318 55.4647,103.587 56.0542,103.777 56.6436,108.647 57.2331,108.839 57.8225,112.554 58.412,117.417 59.0014,123.459 59.5909,129.095 60.1803,131.371 60.7697,134.682 61.3592,139.847 61.9486,140.208 62.5381,147.794 63.1275,156.232 63.717,161.926 64.3064,166.917 64.8958,173.886" fill="none" stroke="#ecb01f" stroke-width="0.5" stroke-linecap="butt" stroke-linejoin="round"/>
   <polyline points="40.1392,30.3741 40.7287,48.3959 41.3181,57.4158 41.9075,65.3466 42.497,66.2804 43.0864,67.4947 43.6759,72.8532 44.2653,80.8701 44.8548,82.942 45.4442,80.9716 46.0337,80.3452 46.6231,84.0247 47.2125,89.157 47.802,92.0301 48.3914,92.1333 48.9809,90.7721 49.5703,87.4951 50.1598,87.0739 50.7492,88.7611 51.3386,92.774 51.9281,94.7451 52.5175,93.8549 53.107,94.4365 53.6964,94.9975 54.2859,92.568 54.8753,91.26 55.4647,93.7873 56.0542,95.0213 56.6436,92.7869 57.2331,91.7919 57.8225,92.4996 58.412,93.7734 59.0014,95.2652 59.5909,96.5829 60.1803,96.641 60.7697,97.5435 61.3592,97.1467 61.9486,93.8238 62.5381,89.9307 63.1275,90.8368 63.717,93.7851 64.3064,95.2401 64.8958,93.7122 65.4853,94.1086 66.0747,94.2244 66.6642,92.7648 67.2536,92.8974 67.8431,95.8578 68.4325,97.7491 69.0219,95.5218 69.6114,94.2721 70.2008,94.4823 70.7903,94.7198 71.3797,97.6344 71.9692,100.425 72.5586,100.001 73.1481,95.0575 73.7375,94.4426 74.3269,94.8165 74.9164,92.3627 75.5058,90.7644 76.0953,91.74 76.6847,91.3233 77.2742,89.1011 77.8636,89.7745 78.453,92.7947 79.0425,92.8078 79.6319,92.4059 80.2214,94.3126 80.8108,96.4664 81.4003,95.2651 81.9897,93.396 82.5792,95.33 83.1686,96.8928 83.758,97.1916 84.3475,98.8429 84.9369,99.0897 85.5264,97.9802 86.1158,97.3683 86.7053,96.5323 87.2947,96.8327 87.8841,97.3475 88.4736,95.4098 89.063,93.6434 89.6525,93.4127 90.2419,94.6028 90.8314,96.787 91.4208,96.9099 92.0103,94.176 92.5997,91.4194 93.1891,91.8056 93.7786,93.0744 94.368,93.0459 94.9575,94.2053 95.5469,92.9097 96.1364,89.7319 96.7258,91.421 97.3152,93.5425 97.9047,91.4252 98.4941,91.7769 99.0836,96.1196 99.673,95.4949 100.262,91.0466 100.852,92.182 101.441,94.4858 102.031,93.6159 102.62,95.8403 103.21,101.038 103.799,99.681 104.389,97.0325 104.978,99.4265 105.567,100.177 106.157,98.7366 106.746,101.886 107.336,103.491 107.925,99.9944 108.515,97.5696 109.104,99.9429 109.694,101.525 110.283,103.871 110.872,105.921 111.462,106.473 112.051,105.177 112.641,104.252 113.23,104.323 113.82,106.072 114.409,107.447 114.999,108.685 115.588,111.572 116.177,116.436 116.767,114.564 117.356,111.181 117.946,113.648 118.535,118.358 119.125,117.808 119.714,117.231 120.304,120.239 120.893,120.859 121.482,118.09 122.072,121.867 122.661,127.99 123.251,126.661 123.84,124.148 124.43,125.846 125.019,125.329 125.609,122.775 126.198,126.227 126.787,130.485 127.377,126.814 127.966,125.061 128.556,127.909 129.145,129.72 129.735,126.598 130.324,126.608 130.914,129.528 131.503,130.726 132.092,128.371 132.682,126.184 133.271,127.314 133.861,136.046 134.45,142.166 135.04,137.579 135.629,135.257 136.219,141.028 136.808,144.219 137.397,141.412 137.987,140.782 138.576,144.959 139.166,142.151 139.755,138.422 140.345,144.289 140.934,149.712 141.524,148.567 142.113,144.254 142.702,146.143 143.292,148.046 143.881,143.594 144.471,140.89 145.06,145.508 145.65,150.053 146.239,149.323 146.829,145.299 147.418,145.971 148.007,151.785 148.597,155.055 149.186,149.891 149.776,143.973 150.365,145.688 150.955,151.509 151.544,153.748 152.134,149.769 152.723,152.139 153.312,157.052 153.902,156.163 154.491,150.681 155.081,154.353 155.67,159.288 156.26,155.484 156.849,146.899 157.438,150.207 158.028,157.329 158.617,161.435 159.207,155.358 159.796,152.382 160.386,156.962 160.975,159.928 161.565,156.708 162.154,158.621 162.743,165.805 163.333,167.178 163.922,161.987 164.512,164.681 165.101,172.081 165.691,174.536" fill="none" stroke="#7d2e8d" stroke-width="0.5" stroke-linecap="butt" stroke-linejoin="round"/>
  </g>
  <clipPath id="cp00304227">
   <polygon points="0,227 304,227 304,0 0,0"/>
  </clipPath>
  <g clip-path="url(#cp00304227)">
   <polygon points="138.106,107.041 264.283,107.041 264.283,33.0443 138.106,33.0443" shape-rendering="crispEdges" fill="#ffffff"/>
   <polyline points="138.106,107.041 264.283,107.041" fill="none" stroke="#262626" stroke-width="0.5" stroke-linecap="square" stroke-linejoin="miter" stroke-dasharray="16,0"/>
   <polyline points="138.106,33.0443 264.283,33.0443" fill="none" stroke="#262626" stroke-width="0.5" stroke-linecap="square" stroke-linejoin="miter" stroke-dasharray="16,0"/>
   <polyline points="138.106,107.041 138.106,33.0443" fill="none" stroke="#262626" stroke-width="0.5" stroke-linecap="square" stroke-linejoin="miter" stroke-dasharray="16,0"/>
   <polyline points="264.283,107.041 264.283,33.0443" fill="none" stroke="#262626" stroke-width="0.5" stroke-linecap="square" stroke-linejoin="miter" stroke-dasharray="16,0"/>
   <polyline points="143.628,44.3647 171.239,44.3647" fill="none" stroke="#0071bc" stroke-width="0.5" stroke-linecap="butt" stroke-linejoin="round"/>
   <text font-size="9" transform="translate(176.761,49.3647) rotate(-0,-0,-5)" font-weight="normal" xml:space="preserve" font-style="normal" font-family="FreeSans">
    <tspan y="-2" fill="rgb(0,0,0)" x="0 7 9 12 17 22 27 30 32 37 40 45 50 55 60 65 67 70 72 77 ">without precondition</tspan>
   </text>
   <polyline points="143.628,61.4834 171.239,61.4834" fill="none" stroke="#d85218" stroke-width="0.5" stroke-linecap="butt" stroke-linejoin="round"/>
   <text font-size="9" transform="translate(176.761,66.4834) rotate(-0,-0,-5)" font-weight="normal" xml:space="preserve" font-style="normal" font-family="FreeSans">
    <tspan y="-2" fill="rgb(0,0,0)" x="0 2 7 12 17 22 ">jacobi</tspan>
   </text>
   <polyline points="143.628,78.6021 171.239,78.6021" fill="none" stroke="#ecb01f" stroke-width="0.5" stroke-linecap="butt" stroke-linejoin="round"/>
   <text font-size="9" transform="translate(176.761,82.6021) rotate(-0,-0,-4)" font-weight="normal" xml:space="preserve" font-style="normal" font-family="FreeSans">
    <tspan y="-0" fill="rgb(0,0,0)" x="0 2 7 12 17 ">ichol</tspan>
   </text>
   <polyline points="143.628,95.7208 171.239,95.7208" fill="none" stroke="#7d2e8d" stroke-width="0.5" stroke-linecap="butt" stroke-linejoin="round"/>
   <text font-size="9" transform="translate(176.761,100.221) rotate(-0,-0,-4.5)" font-weight="normal" xml:space="preserve" font-style="normal" font-family="FreeSans">
    <tspan y="-1" fill="rgb(0,0,0)" x="0 2 7 12 17 19 21 28 30 33 38 40 43 48 51 56 60 65 70 72 ">ichol with threshold</tspan>
   </text>
  </g>
 </g>
</svg>
